<svg height="512pt" viewBox="0 0 512 512" width="512pt" xmlns="http://www.w3.org/2000/svg"><path d="m356.265625 251.191406c-31.308594 0-56.78125-25.476562-56.78125-56.792968 0-5.519532 4.476563-10 10-10s10 4.480468 10 10c0 20.289062 16.5 36.792968 36.78125 36.792968 20.285156 0 36.785156-16.503906 36.785156-36.792968 0-5.519532 4.476563-10 10-10 5.519531 0 10 4.480468 10 10 0 31.316406-25.472656 56.792968-56.785156 56.792968zm0 0"/><path d="m155.617188 251.191406c-31.308594 0-56.78125-25.476562-56.78125-56.792968 0-5.519532 4.476562-10 10-10 5.523437 0 10 4.480468 10 10 0 20.289062 16.5 36.792968 36.78125 36.792968 20.285156 0 36.785156-16.503906 36.785156-36.792968 0-5.519532 4.476562-10 10-10 5.523437 0 10 4.480468 10 10-.003906 31.316406-25.472656 56.792968-56.785156 56.792968zm0 0"/><path d="m350.800781 407.96875c-3.453125 0-6.8125-1.792969-8.664062-4.996094-17.753907-30.699218-50.78125-49.769531-86.195313-49.769531-35.410156 0-68.4375 19.070313-86.191406 49.769531-2.765625 4.78125-8.882812 6.414063-13.664062 3.648438-4.78125-2.761719-6.414063-8.878906-3.648438-13.660156 21.316406-36.859376 60.976562-59.757813 103.507812-59.757813 42.527344 0 82.1875 22.898437 103.503907 59.757813 2.765625 4.78125 1.132812 10.898437-3.648438 13.660156-1.578125.914062-3.300781 1.347656-5 1.347656zm0 0"/><path d="m371.023438 365.347656c-23.371094 0-42.386719-19.019531-42.386719-42.398437 0-20.957031 29.402343-51.582031 35.296875-57.507813 1.875-1.886718 4.429687-2.949218 7.089844-2.949218 2.660156 0 5.214843 1.0625 7.089843 2.949218 5.894531 5.925782 35.300781 36.550782 35.300781 57.507813 0 23.378906-19.015624 42.398437-42.390624 42.398437zm0-78.238281c-11.75 13.242187-22.386719 28.773437-22.386719 35.839844 0 12.351562 10.042969 22.398437 22.386719 22.398437s22.390624-10.046875 22.390624-22.398437c0-7.066407-10.636718-22.597657-22.390624-35.839844zm0 0"/><path d="m255.941406 512c-68.363281 0-132.636718-26.628906-180.976562-74.980469-48.34375-48.351562-74.964844-112.640625-74.964844-181.019531s26.621094-132.664062 74.964844-181.019531c48.339844-48.351563 112.613281-74.980469 180.976562-74.980469 52.316406 0 102.625 15.683594 145.488282 45.351562 4.539062 3.144532 5.671874 9.375 2.53125 13.914063-3.144532 4.542969-9.375 5.675781-13.914063 2.53125-39.503906-27.34375-85.875-41.796875-134.105469-41.796875-130.097656 0-235.941406 105.867188-235.941406 236s105.84375 236 235.941406 236c130.101563 0 235.945313-105.867188 235.945313-236 0-47.296875-13.933594-92.921875-40.292969-131.945312-3.089844-4.574219-1.886719-10.792969 2.691406-13.882813 4.574219-3.09375 10.789063-1.886719 13.882813 2.6875 28.601562 42.34375 43.71875 91.839844 43.71875 143.140625 0 68.378906-26.621094 132.664062-74.964844 181.019531-48.339844 48.351563-112.613281 74.980469-180.980469 74.980469zm0 0"/><path d="m430.851562 93.058594c-4.191406 0-7.984374-2.695313-9.40625-6.628906-1.394531-3.867188-.203124-8.335938 2.9375-10.992188 3.28125-2.777344 8.09375-3.121094 11.746094-.863281 3.496094 2.160156 5.335938 6.417969 4.523438 10.445312-.929688 4.617188-5.085938 8.039063-9.800782 8.039063zm0 0"/></svg>